inDegrees=no
num_controls=7
num_derivatives=13
num_iterations=85
num_multipliers=7
num_parameters=0
num_slacks=7
num_states=26
objective=0.445929
objective_accelerations=0.056715
objective_balance=0.003310
objective_effort=0.022582
objective_height=0.357782
objective_ligament=0.005540
solver_duration=1158.704870
status=Solve_Succeeded
success=true
DataType=double
version=3
OpenSimVersion=4.5
endheader
time	/jointset/ground_pelvis/pelvis_tilt/value	/jointset/ground_pelvis/pelvis_tx/value	/jointset/ground_pelvis/pelvis_ty/value	/jointset/hip_l/hip_flexion_l/value	/jointset/hip_l/hip_adduction_l/value	/jointset/hip_l/hip_rotation_l/value	/jointset/back/lumbar_extension/value	/jointset/patellofemoral_l/patellar_flexion_l/value	/jointset/knee_l/knee_flexion_l/value	/jointset/knee_l/knee_adduction_l/value	/jointset/knee_l/knee_rotation_l/value	/jointset/ankle_l/ankle_angle_l/value	/jointset/subtalar_l/subtalar_angle_l/value	/jointset/ground_pelvis/pelvis_tilt/speed	/jointset/ground_pelvis/pelvis_tx/speed	/jointset/ground_pelvis/pelvis_ty/speed	/jointset/hip_l/hip_flexion_l/speed	/jointset/hip_l/hip_adduction_l/speed	/jointset/hip_l/hip_rotation_l/speed	/jointset/back/lumbar_extension/speed	/jointset/patellofemoral_l/patellar_flexion_l/speed	/jointset/knee_l/knee_flexion_l/speed	/jointset/knee_l/knee_adduction_l/speed	/jointset/knee_l/knee_rotation_l/speed	/jointset/ankle_l/ankle_angle_l/speed	/jointset/subtalar_l/subtalar_angle_l/speed	/forceset/tau_hip_flexion_l	/forceset/tau_hip_adduction_l	/forceset/tau_hip_rotation_l	/forceset/tau_knee_flexion_l	/forceset/tau_ankle_angle_l	/forceset/tau_subtalar_angle_l	/forceset/tau_lumbar_extension	lambda_cid13_p0	lambda_cid13_p1	lambda_cid13_p2	lambda_cid13_p3	lambda_cid13_p4	lambda_cid13_p5	lambda_cid14_p0	/jointset/ground_pelvis/pelvis_tilt/accel	/jointset/ground_pelvis/pelvis_tx/accel	/jointset/ground_pelvis/pelvis_ty/accel	/jointset/hip_l/hip_flexion_l/accel	/jointset/hip_l/hip_adduction_l/accel	/jointset/hip_l/hip_rotation_l/accel	/jointset/back/lumbar_extension/accel	/jointset/patellofemoral_l/patellar_flexion_l/accel	/jointset/knee_l/knee_flexion_l/accel	/jointset/knee_l/knee_adduction_l/accel	/jointset/knee_l/knee_rotation_l/accel	/jointset/ankle_l/ankle_angle_l/accel	/jointset/subtalar_l/subtalar_angle_l/accel	gamma_cid13_p0	gamma_cid13_p1	gamma_cid13_p2	gamma_cid13_p3	gamma_cid13_p4	gamma_cid13_p5	gamma_cid14_p0
0	-0.03724556451077705	0.06790582478258639	0.8958592307347083	0.1955287580552426	-0.3229508798156249	-0.4643578586409327	-0.1379045077516729	0.0701528807908418	0.07015288079084844	-0.1745325385332833	-0.09977731874270447	-0.06701059314715049	0.002587759329597826	0	0	0	0	0	0	0	0	0	0	0	0	0	0.110983389535997	-0.1003876242777825	-0.0288361759299124	-0.2484175229351614	0.2162957243696797	-0.01756724255163695	-0.05382874851768637	33.87407167874414	-0.1972798384148971	1.860798499105368	-7.391154822173521	-515.5942668799157	-77.23507974818388	-39.45214809337818	-4.259677726537534	-1.657513375564627	-0.9561735195578994	12.1608943713159	-2.11620086299446	3.262355334829968	-2.821412782934195	10.34310863709322	10.34310863709069	0.53983636030334	-0.9181732165499972	2.634577949025293	-0.8883040598238533	-2.523650042007638e-08	1.114632917048514e-07	1.447135037282935e-07	2.345571964483916e-09	9.864079695972652e-10	-5.971022994449389e-08	-9.933892427149173e-09
0.01	-0.03744883602245106	0.06782498061573335	0.8958128680687143	0.1961159312452165	-0.3230549960172845	-0.4641941748764882	-0.1380503787013889	0.070655556727357	0.07065555672736441	-0.1745085525396105	-0.0998171025611868	-0.06688257252647385	0.002543146483166236	-0.04048365261433621	-0.01600636864728608	-0.009236870776834665	0.1168353040938413	-0.02070820589616249	0.03257871177977072	-0.02882963194157618	0.1001120115072663	0.1001120115072446	0.004824323470657665	-0.007924969214470933	0.02562025668944218	-0.008788568230337522	0.1082025635433015	-0.1027369199945923	-0.02859694982915061	-0.2473865841622998	0.214986700218604	-0.01385613663294472	-0.05104332572573023	33.57010740526687	-1.652647385142297	1.975008141936494	-8.603236670855974	-516.6929868967632	-80.02335206752009	-39.46249307217865	-3.917124039278107	-1.547828431457467	-0.9020942961877252	11.35493585657057	-2.030909813714083	3.231905545324421	-2.862054699444964	9.781773025020696	9.78177302501881	0.4578354488980282	-0.7248737765030799	2.528171928097063	-0.85406748732217	-6.903756200588124e-08	1.440794865053266e-07	2.20427035466806e-07	4.355699464268848e-08	-2.329861895317001e-07	-1.153302622991424e-07	-1.587292876295332e-08
0.02	-0.03805182706235075	0.06758894679797861	0.8956752066070633	0.1978534749617633	-0.3233627501500586	-0.4637094487050887	-0.1384742092304566	0.07214665790243152	0.07214665790243373	-0.1744355022894787	-0.09993517907234947	-0.06649786485906352	0.002414661097894217	-0.07994390564450662	-0.03103793018034358	-0.01825975913138879	0.2300741053137962	-0.04072758622380427	0.06420848139049141	-0.05559191587018123	0.1976850477136217	0.1976850477135785	0.009812851279348181	-0.01565853853323569	0.05133740934661688	-0.01677450776801903	0.1054217375506098	-0.1050862157114111	-0.02835772372830994	-0.2463556453895026	0.2136776760674925	-0.01014503071428263	-0.04825790293373459	33.32941700841018	-3.12219279748244	2.095019432955611	-9.994707947569227	-516.878257790304	-82.65530454814375	-39.49292491130159	-4.054997809704435	-1.462551952718827	-0.9133770351017987	11.44159379653852	-1.97843574929042	3.072566901019957	-2.407943180339939	9.83531357691102	9.83531357690854	0.5726772279096919	-0.8798932374087522	2.653957142571865	-0.7277783212927212	-1.128386235916861e-07	1.766956813058018e-07	2.961405672053185e-07	8.476841732089304e-08	-4.669587870329976e-07	-1.709502946537909e-07	-2.181196509875747e-08
0.03	-0.03904473643737125	0.06720663903619331	0.8954480430597787	0.2007072177653357	-0.3238671647705571	-0.462913154295285	-0.1391561982701988	0.0746010308949072	0.0746010308949137	-0.174311780482976	-0.1001298583194525	-0.06585655089688498	0.002209832429462928	-0.1184489317100707	-0.04534148433479573	-0.02716273449946307	0.3401448573488262	-0.06003347143144722	0.09491496876100948	-0.08061177722139662	0.2927239504849493	0.2927239504848965	0.01492440116501724	-0.02322348091204232	0.07681233371046262	-0.02412244003577472	0.1014601068845642	-0.1026046866414487	-0.02769686322607251	-0.2426939835869478	0.2091369387192418	-0.009369626973507754	-0.04495641059970969	31.92567042973703	-3.280401873725288	2.197042683229543	-9.585278790417128	-516.8418436487528	-82.55566659696542	-39.54220646535627	-3.719912241147487	-1.401919350080865	-0.8773197508547393	10.71035570569788	-1.888439418748247	3.04933634930949	-2.519890383907567	9.268342969106968	9.268342969107119	0.4793931128652329	-0.6866842188847575	2.477300845265504	-0.7280439712891639	-1.4212496105304e-07	1.864030101046936e-07	3.490416827139648e-07	1.12806285801804e-07	-6.422975495836721e-07	-2.116853411459389e-07	-2.603560995382637e-08
0.04	-0.04041702752028621	0.06668376329220947	0.8951321373661741	0.2046457760489973	-0.3245609931455773	-0.4618138656729253	-0.1400825624777348	0.07799182578346671	0.0779918257834696	-0.1741371433288103	-0.1003985648865012	-0.06496387953867293	0.001933575779999296	-0.1558202472222203	-0.05915152662005328	-0.03600818839537002	0.4470372013323784	-0.07861033712897394	0.1248073239011971	-0.104466949428425	0.3849694269308063	0.3849694269307532	0.01999592080946998	-0.03046400252157175	0.1016088885532895	-0.03106010397442053	0.09749847621848309	-0.1001231575714855	-0.02703600272382027	-0.2390323217844353	0.2045962013709702	-0.008594223232743541	-0.04165491826569762	30.58004882259642	-3.450509273859597	2.302929781032558	-9.345713017610429	-515.9704459686308	-82.30773309554314	-39.60880216211674	-3.828255699021577	-1.363849578879817	-0.9018727406683388	10.80591218624288	-1.832631847267231	2.909740454953869	-2.175005351502532	9.276628311816879	9.276628311816244	0.5646711796663062	-0.8150090835532952	2.518283238368162	-0.6457246554707603	-1.71112025852034e-07	1.956379911509754e-07	4.014724391250881e-07	1.40572534608544e-07	-8.164273670838183e-07	-2.521134807130869e-07	-3.022388591238526e-08
0.05	-0.0421578056024229	0.06602501951009994	0.894727788542078	0.209638800044552	-0.325436971986803	-0.4604200025116545	-0.1412404503903653	0.0822921674061001	0.08229216740610241	-0.1739118381290378	-0.1007387469872067	-0.06382651203978824	0.001590018739757712	-0.1921223373788919	-0.07253523646964759	-0.04486978580701674	0.5510548330055166	-0.09646354085904978	0.1538427356649055	-0.1268656162542374	0.4746501561906446	0.4746501561906025	0.02504468528199642	-0.03751598561856049	0.1257307873698796	-0.03759541605705669	0.09138456722738238	-0.09445807097547103	-0.02586564616370438	-0.2322148193286127	0.1960471052570326	-0.008727405349006069	-0.03681995000370605	27.90207528000277	-3.098048558579304	2.445800367846583	-7.895953375563477	-515.1670477688559	-80.89893482835608	-39.6907461926741	-3.499241883856279	-1.316304349026217	-0.8796993414750253	10.12274974865753	-1.743445034199597	2.882001116236707	-2.235544821546456	8.746490100921138	8.746490100922983	0.4719949609644696	-0.641776045295121	2.339065042815713	-0.6491267879520134	-1.878414438474202e-07	2.015166514705149e-07	4.356835320594982e-07	1.570452115730419e-07	-9.194004236513786e-07	-2.766318529140056e-07	-3.242972938240655e-08
0.06	-0.04425521582810361	0.06523430409728946	0.894234544523853	0.2156566125749944	-0.3264878389449903	-0.4587394733169135	-0.1426149744659421	0.08747585529489667	0.08747585529489636	-0.1736366421085555	-0.1011477455433983	-0.06245194118483537	0.001182770118031062	-0.227146675930205	-0.08554585276023999	-0.05378722722117115	0.6519949083109974	-0.1135879605220048	0.1821405305949088	-0.1477941820170887	0.5616386801646327	0.5616386801645932	0.02997408495126585	-0.04422729361648469	0.1490495597669196	-0.043798420271374	0.08527065823622297	-0.08879298437944769	-0.02469528960353863	-0.2253973168728382	0.187498009143078	-0.008860587465268816	-0.03198498174175499	25.27699497850676	-2.753449097321305	2.588325968120699	-6.598958501716205	-513.6080377714727	-79.35049885921858	-39.78587385018382	-3.572705377949926	-1.289230867079341	-0.9130415411698805	10.1904009127113	-1.686875033843127	2.762217088212852	-1.880985138910319	8.738187254646812	8.738187254644481	0.5407982190148052	-0.7468740637403695	2.357657954458224	-0.5792630818069894	-2.040547503984439e-07	2.072539930226127e-07	4.691274812685731e-07	1.730423697231296e-07	-1.019377406074409e-06	-3.004803401731882e-07	-3.455210201080519e-08
